<?xml version="1.0" encoding="utf-8"?>
<!-- Generator: Adobe Illustrator 16.2.1, SVG Export Plug-In . SVG Version: 6.00 Build 0)  -->
<!DOCTYPE svg PUBLIC "-//W3C//DTD SVG 1.1//EN" "http://www.w3.org/Graphics/SVG/1.1/DTD/svg11.dtd">
<svg version="1.1" id="Layer_1" xmlns="http://www.w3.org/2000/svg" xmlns:xlink="http://www.w3.org/1999/xlink" x="0px" y="0px"
	 width="42.029px" height="42.029px" viewBox="0 0 42.029 42.029" enable-background="new 0 0 42.029 42.029" xml:space="preserve">
<g>
	<path fill="#5F7B9B" d="M0,39.564c0,1.359,1.101,2.465,2.462,2.465h37.104c1.358,0,2.463-1.105,2.463-2.465V2.463
		c0-1.36-1.104-2.463-2.463-2.463H2.462C1.101,0,0,1.103,0,2.463V39.564z"/>
	<g>
		<polygon opacity="0.8" fill="#FFFFFF" stroke="#5F7B9B" stroke-width="0.1582" stroke-miterlimit="10" points="20.922,11.738 
			15.254,19.399 20.922,19.672 		"/>
		<polygon opacity="0.8" fill="#FFFFFF" stroke="#5F7B9B" stroke-width="0.1582" stroke-miterlimit="10" points="26.238,19.3 
			20.922,11.738 20.912,19.653 		"/>
		<polygon opacity="0.9" fill="#FFFFFF" stroke="#5F7B9B" stroke-width="0.1582" stroke-miterlimit="10" points="20.609,19.655 
			16.376,19.453 3.178,18.817 10.346,28.418 20.596,19.941 20.922,19.672 		"/>
		<polygon opacity="0.9" fill="#FFFFFF" stroke="#5F7B9B" stroke-width="0.1582" stroke-miterlimit="10" points="25.435,19.357 
			21.219,19.651 20.922,19.672 21.229,19.928 31.667,28.554 38.666,18.431 		"/>
		<polygon fill="#FFFFFF" stroke="#5F7B9B" stroke-width="0.1582" stroke-miterlimit="10" points="21.229,19.928 20.922,19.672 
			20.596,19.941 10.346,28.418 31.667,28.554 		"/>
	</g>
</g>
</svg>
